<svg xmlns="http://www.w3.org/2000/svg" viewBox="0 0 50 50" preserveAspectRatio="xMidYMid meet" style="width: 100%; height: 100%; transform: translate3d(0px, 0px, 0px);">
    <defs>
        <clipPath id="__lottie_element_11">
            <rect width="50" height="50" x="0" y="0"></rect>
        </clipPath>
        <mask id="__lottie_element_12" mask-type="alpha">
            <g transform="matrix(1,0,0,1,0,0)" opacity="1" style="display: block;">
                <g opacity="1" transform="matrix(1,0,0,1,25,25.5)">
                    <path fill="rgb(255,0,0)" fill-opacity="1" d=" M-20,-10.5 C-20,-10.5 20,-10.5 20,-10.5 C22.208999633789062,-10.5 24,-8.708999633789062 24,-6.5 C24,-6.5 24,6.5 24,6.5 C24,8.708999633789062 22.208999633789062,10.5 20,10.5 C20,10.5 -20,10.5 -20,10.5 C-22.208999633789062,10.5 -24,8.708999633789062 -24,6.5 C-24,6.5 -24,-6.5 -24,-6.5 C-24,-8.708999633789062 -22.208999633789062,-10.5 -20,-10.5z"></path>
                </g>
            </g>
        </mask>
    </defs>
    <style>

        .icon-path {
                animation: icon-path-animation 2s linear infinite;
        }

        @keyframes icon-path-animation {
            0% {
                 transform: matrix(0.1,0,0,1,0,0);
                 
            }

                        25% {
                 transform: matrix(0.25,0,0,1,0,0);
                 
            }
                        50% {
                 transform: matrix(0.5,0,0,1,0,0);
                 
            }
                        75% {
                 transform: matrix(0.75,0,0,1,0,0);
                
            }

                        100% {
                 transform: matrix(1,0,0,1,0,0);
                
            }

        }

    </style>
    <g clip-path="url(#__lottie_element_11)">
        <g transform="matrix(1,0,0,1,0,0)" opacity="1" style="display: block;">
            <g opacity="1" transform="matrix(1,0,0,1,25,25.5)">
                <path stroke-linecap="butt" stroke-linejoin="miter" fill-opacity="0" stroke-miterlimit="10" stroke="rgb(0,0,0)" stroke-opacity="1" stroke-width="2" d=" M-20,-10.5 C-20,-10.5 20,-10.5 20,-10.5 C22.208999633789062,-10.5 24,-8.708999633789062 24,-6.5 C24,-6.5 24,6.5 24,6.5 C24,8.708999633789062 22.208999633789062,10.5 20,10.5 C20,10.5 -20,10.5 -20,10.5 C-22.208999633789062,10.5 -24,8.708999633789062 -24,6.5 C-24,6.5 -24,-6.5 -24,-6.5 C-24,-8.708999633789062 -22.208999633789062,-10.5 -20,-10.5z"></path>
            </g>
        </g>
        <g mask="url(#__lottie_element_12)" style="display: block;">
            <g class="icon-path"  opacity="1">
                <path fill="rgb(0,0,0)" fill-opacity="1" d=" M5,15 C5,15 45,15 45,15 C47.21,15 49,16.79 49,19 C49,19 49,32 49,32 C49,34.21 47.21,36 45,36 C45,36 5,36 5,36 C2.79,36 1,34.21 1,32 C1,32 1,19 1,19 C1,16.79 2.79,15 5,15z"></path>
                <g opacity="1" transform="matrix(1,0,0,1,25,25.5)">
                    <path stroke-linecap="butt" stroke-linejoin="miter" fill-opacity="0" stroke-miterlimit="10" stroke="rgb(0,0,0)" stroke-opacity="1" stroke-width="2" d=" M-20,-10.5 C-20,-10.5 20,-10.5 20,-10.5 C22.208999633789062,-10.5 24,-8.708999633789062 24,-6.5 C24,-6.5 24,6.5 24,6.5 C24,8.708999633789062 22.208999633789062,10.5 20,10.5 C20,10.5 -20,10.5 -20,10.5 C-22.208999633789062,10.5 -24,8.708999633789062 -24,6.5 C-24,6.5 -24,-6.5 -24,-6.5 C-24,-8.708999633789062 -22.208999633789062,-10.5 -20,-10.5z"></path>
                </g>
            </g>
        </g>
    </g>
</svg>